<svg xmlns="http://www.w3.org/2000/svg" width="773" height="25" viewBox="0 0 773 25" fill="none"><path d="M2.5 11C1.39543 11 0.5 11.8954 0.5 13C0.5 14.1046 1.39543 15 2.5 15V11ZM742.931 15C744.035 15 744.931 14.1046 744.931 13C744.931 11.8954 744.035 11 742.931 11V15ZM7.4494 15C8.55397 15 9.4494 14.1046 9.4494 13C9.4494 11.8954 8.55397 11 7.4494 11V15ZM19.328 11C18.2234 11 17.328 11.8954 17.328 13C17.328 14.1046 18.2234 15 19.328 15V11ZM29.2268 15C30.3313 15 31.2268 14.1046 31.2268 13C31.2268 11.8954 30.3313 11 29.2268 11V15ZM41.1053 11C40.0008 11 39.1053 11.8954 39.1053 13C39.1053 14.1046 40.0008 15 41.1053 15V11ZM51.0041 15C52.1087 15 53.0041 14.1046 53.0041 13C53.0041 11.8954 52.1087 11 51.0041 11V15ZM62.8827 11C61.7781 11 60.8827 11.8954 60.8827 13C60.8827 14.1046 61.7781 15 62.8827 15V11ZM72.7815 15C73.8861 15 74.7815 14.1046 74.7815 13C74.7815 11.8954 73.8861 11 72.7815 11V15ZM84.6601 11C83.5555 11 82.6601 11.8954 82.6601 13C82.6601 14.1046 83.5555 15 84.6601 15V11ZM94.5589 15C95.6635 15 96.5589 14.1046 96.5589 13C96.5589 11.8954 95.6635 11 94.5589 11V15ZM106.437 11C105.333 11 104.437 11.8954 104.437 13C104.437 14.1046 105.333 15 106.437 15V11ZM116.336 15C117.441 15 118.336 14.1046 118.336 13C118.336 11.8954 117.441 11 116.336 11V15ZM128.215 11C127.11 11 126.215 11.8954 126.215 13C126.215 14.1046 127.11 15 128.215 15V11ZM138.114 15C139.218 15 140.114 14.1046 140.114 13C140.114 11.8954 139.218 11 138.114 11V15ZM149.992 11C148.888 11 147.992 11.8954 147.992 13C147.992 14.1046 148.888 15 149.992 15V11ZM159.891 15C160.996 15 161.891 14.1046 161.891 13C161.891 11.8954 160.996 11 159.891 11V15ZM171.77 11C170.665 11 169.77 11.8954 169.77 13C169.77 14.1046 170.665 15 171.77 15V11ZM181.668 15C182.773 15 183.668 14.1046 183.668 13C183.668 11.8954 182.773 11 181.668 11V15ZM193.547 11C192.442 11 191.547 11.8954 191.547 13C191.547 14.1046 192.442 15 193.547 15V11ZM203.446 15C204.55 15 205.446 14.1046 205.446 13C205.446 11.8954 204.55 11 203.446 11V15ZM215.324 11C214.22 11 213.324 11.8954 213.324 13C213.324 14.1046 214.22 15 215.324 15V11ZM225.223 15C226.328 15 227.223 14.1046 227.223 13C227.223 11.8954 226.328 11 225.223 11V15ZM237.102 11C235.997 11 235.102 11.8954 235.102 13C235.102 14.1046 235.997 15 237.102 15V11ZM247.001 15C248.105 15 249.001 14.1046 249.001 13C249.001 11.8954 248.105 11 247.001 11V15ZM258.879 11C257.774 11 256.879 11.8954 256.879 13C256.879 14.1046 257.774 15 258.879 15V11ZM268.778 15C269.882 15 270.778 14.1046 270.778 13C270.778 11.8954 269.882 11 268.778 11V15ZM280.656 11C279.552 11 278.656 11.8954 278.656 13C278.656 14.1046 279.552 15 280.656 15V11ZM290.555 15C291.66 15 292.555 14.1046 292.555 13C292.555 11.8954 291.66 11 290.555 11V15ZM302.434 11C301.329 11 300.434 11.8954 300.434 13C300.434 14.1046 301.329 15 302.434 15V11ZM312.333 15C313.437 15 314.333 14.1046 314.333 13C314.333 11.8954 313.437 11 312.333 11V15ZM324.211 11C323.107 11 322.211 11.8954 322.211 13C322.211 14.1046 323.107 15 324.211 15V11ZM334.11 15C335.215 15 336.11 14.1046 336.11 13C336.11 11.8954 335.215 11 334.11 11V15ZM345.989 11C344.884 11 343.989 11.8954 343.989 13C343.989 14.1046 344.884 15 345.989 15V11ZM355.887 15C356.992 15 357.887 14.1046 357.887 13C357.887 11.8954 356.992 11 355.887 11V15ZM367.766 11C366.661 11 365.766 11.8954 365.766 13C365.766 14.1046 366.661 15 367.766 15V11ZM377.665 15C378.769 15 379.665 14.1046 379.665 13C379.665 11.8954 378.769 11 377.665 11V15ZM389.543 11C388.439 11 387.543 11.8954 387.543 13C387.543 14.1046 388.439 15 389.543 15V11ZM399.442 15C400.547 15 401.442 14.1046 401.442 13C401.442 11.8954 400.547 11 399.442 11V15ZM411.321 11C410.216 11 409.321 11.8954 409.321 13C409.321 14.1046 410.216 15 411.321 15V11ZM421.219 15C422.324 15 423.219 14.1046 423.219 13C423.219 11.8954 422.324 11 421.219 11V15ZM433.098 11C431.994 11 431.098 11.8954 431.098 13C431.098 14.1046 431.994 15 433.098 15V11ZM442.997 15C444.101 15 444.997 14.1046 444.997 13C444.997 11.8954 444.101 11 442.997 11V15ZM454.875 11C453.771 11 452.875 11.8954 452.875 13C452.875 14.1046 453.771 15 454.875 15V11ZM464.774 15C465.879 15 466.774 14.1046 466.774 13C466.774 11.8954 465.879 11 464.774 11V15ZM476.653 11C475.548 11 474.653 11.8954 474.653 13C474.653 14.1046 475.548 15 476.653 15V11ZM486.552 15C487.656 15 488.552 14.1046 488.552 13C488.552 11.8954 487.656 11 486.552 11V15ZM498.43 11C497.326 11 496.43 11.8954 496.43 13C496.43 14.1046 497.326 15 498.43 15V11ZM508.329 15C509.434 15 510.329 14.1046 510.329 13C510.329 11.8954 509.434 11 508.329 11V15ZM520.208 11C519.103 11 518.208 11.8954 518.208 13C518.208 14.1046 519.103 15 520.208 15V11ZM530.106 15C531.211 15 532.106 14.1046 532.106 13C532.106 11.8954 531.211 11 530.106 11V15ZM541.985 11C540.88 11 539.985 11.8954 539.985 13C539.985 14.1046 540.88 15 541.985 15V11ZM551.884 15C552.988 15 553.884 14.1046 553.884 13C553.884 11.8954 552.988 11 551.884 11V15ZM563.762 11C562.658 11 561.762 11.8954 561.762 13C561.762 14.1046 562.658 15 563.762 15V11ZM573.661 15C574.766 15 575.661 14.1046 575.661 13C575.661 11.8954 574.766 11 573.661 11V15ZM585.54 11C584.435 11 583.54 11.8954 583.54 13C583.54 14.1046 584.435 15 585.54 15V11ZM595.438 15C596.543 15 597.438 14.1046 597.438 13C597.438 11.8954 596.543 11 595.438 11V15ZM607.317 11C606.212 11 605.317 11.8954 605.317 13C605.317 14.1046 606.212 15 607.317 15V11ZM617.216 15C618.32 15 619.216 14.1046 619.216 13C619.216 11.8954 618.32 11 617.216 11V15ZM629.094 11C627.99 11 627.094 11.8954 627.094 13C627.094 14.1046 627.99 15 629.094 15V11ZM638.993 15C640.098 15 640.993 14.1046 640.993 13C640.993 11.8954 640.098 11 638.993 11V15ZM650.872 11C649.767 11 648.872 11.8954 648.872 13C648.872 14.1046 649.767 15 650.872 15V11ZM660.77 15C661.875 15 662.77 14.1046 662.77 13C662.77 11.8954 661.875 11 660.77 11V15ZM672.649 11C671.544 11 670.649 11.8954 670.649 13C670.649 14.1046 671.544 15 672.649 15V11ZM682.548 15C683.652 15 684.548 14.1046 684.548 13C684.548 11.8954 683.652 11 682.548 11V15ZM694.426 11C693.322 11 692.426 11.8954 692.426 13C692.426 14.1046 693.322 15 694.426 15V11ZM704.325 15C705.43 15 706.325 14.1046 706.325 13C706.325 11.8954 705.43 11 704.325 11V15ZM716.204 11C715.099 11 714.204 11.8954 714.204 13C714.204 14.1046 715.099 15 716.204 15V11ZM726.102 15C727.207 15 728.102 14.1046 728.102 13C728.102 11.8954 727.207 11 726.102 11V15ZM737.981 11C736.876 11 735.981 11.8954 735.981 13C735.981 14.1046 736.876 15 737.981 15V11ZM2.5 15H7.4494V11H2.5V15ZM19.328 15H29.2268V11H19.328V15ZM41.1053 15H51.0041V11H41.1053V15ZM62.8827 15H72.7815V11H62.8827V15ZM84.6601 15H94.5589V11H84.6601V15ZM106.437 15H116.336V11H106.437V15ZM128.215 15H138.114V11H128.215V15ZM149.992 15H159.891V11H149.992V15ZM171.77 15H181.668V11H171.77V15ZM193.547 15H203.446V11H193.547V15ZM215.324 15H225.223V11H215.324V15ZM237.102 15H247.001V11H237.102V15ZM258.879 15H268.778V11H258.879V15ZM280.656 15H290.555V11H280.656V15ZM302.434 15H312.333V11H302.434V15ZM324.211 15H334.11V11H324.211V15ZM345.989 15H355.887V11H345.989V15ZM367.766 15H377.665V11H367.766V15ZM389.543 15H399.442V11H389.543V15ZM411.321 15H421.219V11H411.321V15ZM433.098 15H442.997V11H433.098V15ZM454.875 15H464.774V11H454.875V15ZM476.653 15H486.552V11H476.653V15ZM498.43 15H508.329V11H498.43V15ZM520.208 15H530.106V11H520.208V15ZM541.985 15H551.884V11H541.985V15ZM563.762 15H573.661V11H563.762V15ZM585.54 15H595.438V11H585.54V15ZM607.317 15H617.216V11H607.317V15ZM629.094 15H638.993V11H629.094V15ZM650.872 15H660.77V11H650.872V15ZM672.649 15H682.548V11H672.649V15ZM694.426 15H704.325V11H694.426V15ZM716.204 15H726.102V11H716.204V15ZM737.981 15H742.931V11H737.981V15Z" fill="url(#paint0_linear)"></path><circle cx="760.5" cy="12.5" r="12.5" fill="#FEC72F"></circle><circle cx="760.5" cy="12.4998" r="6.73077" fill="white"></circle><defs><linearGradient id="paint0_linear" x1="989.749" y1="-1529.71" x2="989.749" y2="3614.32" gradientUnits="userSpaceOnUse"><stop stop-color="white"></stop><stop offset="0.461534" stop-color="#FEC72F"></stop></linearGradient></defs></svg>