<svg xmlns="http://www.w3.org/2000/svg" width="773" height="25" viewBox="0 0 773 25" fill="none"><path d="M770.5 14C771.605 14 772.5 13.1046 772.5 12C772.5 10.8954 771.605 10 770.5 10V14ZM30.0693 10C28.9648 10 28.0693 10.8954 28.0693 12C28.0693 13.1046 28.9648 14 30.0693 14V10ZM765.551 10C764.446 10 763.551 10.8954 763.551 12C763.551 13.1046 764.446 14 765.551 14V10ZM753.672 14C754.777 14 755.672 13.1046 755.672 12C755.672 10.8954 754.777 10 753.672 10V14ZM743.773 10C742.669 10 741.773 10.8954 741.773 12C741.773 13.1046 742.669 14 743.773 14V10ZM731.895 14C732.999 14 733.895 13.1046 733.895 12C733.895 10.8954 732.999 10 731.895 10V14ZM721.996 10C720.891 10 719.996 10.8954 719.996 12C719.996 13.1046 720.891 14 721.996 14V10ZM710.117 14C711.222 14 712.117 13.1046 712.117 12C712.117 10.8954 711.222 10 710.117 10V14ZM700.218 10C699.114 10 698.218 10.8954 698.218 12C698.218 13.1046 699.114 14 700.218 14V10ZM688.34 14C689.444 14 690.34 13.1046 690.34 12C690.34 10.8954 689.444 10 688.34 10V14ZM678.441 10C677.337 10 676.441 10.8954 676.441 12C676.441 13.1046 677.337 14 678.441 14V10ZM666.563 14C667.667 14 668.563 13.1046 668.563 12C668.563 10.8954 667.667 10 666.563 10V14ZM656.664 10C655.559 10 654.664 10.8954 654.664 12C654.664 13.1046 655.559 14 656.664 14V10ZM644.785 14C645.89 14 646.785 13.1046 646.785 12C646.785 10.8954 645.89 10 644.785 10V14ZM634.886 10C633.782 10 632.886 10.8954 632.886 12C632.886 13.1046 633.782 14 634.886 14V10ZM623.008 14C624.112 14 625.008 13.1046 625.008 12C625.008 10.8954 624.112 10 623.008 10V14ZM613.109 10C612.004 10 611.109 10.8954 611.109 12C611.109 13.1046 612.004 14 613.109 14V10ZM601.23 14C602.335 14 603.23 13.1046 603.23 12C603.23 10.8954 602.335 10 601.23 10V14ZM591.332 10C590.227 10 589.332 10.8954 589.332 12C589.332 13.1046 590.227 14 591.332 14V10ZM579.453 14C580.558 14 581.453 13.1046 581.453 12C581.453 10.8954 580.558 10 579.453 10V14ZM569.554 10C568.45 10 567.554 10.8954 567.554 12C567.554 13.1046 568.45 14 569.554 14V10ZM557.676 14C558.78 14 559.676 13.1046 559.676 12C559.676 10.8954 558.78 10 557.676 10V14ZM547.777 10C546.672 10 545.777 10.8954 545.777 12C545.777 13.1046 546.672 14 547.777 14V10ZM535.898 14C537.003 14 537.898 13.1046 537.898 12C537.898 10.8954 537.003 10 535.898 10V14ZM525.999 10C524.895 10 523.999 10.8954 523.999 12C523.999 13.1046 524.895 14 525.999 14V10ZM514.121 14C515.226 14 516.121 13.1046 516.121 12C516.121 10.8954 515.226 10 514.121 10V14ZM504.222 10C503.118 10 502.222 10.8954 502.222 12C502.222 13.1046 503.118 14 504.222 14V10ZM492.344 14C493.448 14 494.344 13.1046 494.344 12C494.344 10.8954 493.448 10 492.344 10V14ZM482.445 10C481.34 10 480.445 10.8954 480.445 12C480.445 13.1046 481.34 14 482.445 14V10ZM470.566 14C471.671 14 472.566 13.1046 472.566 12C472.566 10.8954 471.671 10 470.566 10V14ZM460.667 10C459.563 10 458.667 10.8954 458.667 12C458.667 13.1046 459.563 14 460.667 14V10ZM448.789 14C449.893 14 450.789 13.1046 450.789 12C450.789 10.8954 449.893 10 448.789 10V14ZM438.89 10C437.785 10 436.89 10.8954 436.89 12C436.89 13.1046 437.785 14 438.89 14V10ZM427.011 14C428.116 14 429.011 13.1046 429.011 12C429.011 10.8954 428.116 10 427.011 10V14ZM417.113 10C416.008 10 415.113 10.8954 415.113 12C415.113 13.1046 416.008 14 417.113 14V10ZM405.234 14C406.339 14 407.234 13.1046 407.234 12C407.234 10.8954 406.339 10 405.234 10V14ZM395.335 10C394.231 10 393.335 10.8954 393.335 12C393.335 13.1046 394.231 14 395.335 14V10ZM383.457 14C384.561 14 385.457 13.1046 385.457 12C385.457 10.8954 384.561 10 383.457 10V14ZM373.558 10C372.453 10 371.558 10.8954 371.558 12C371.558 13.1046 372.453 14 373.558 14V10ZM361.679 14C362.784 14 363.679 13.1046 363.679 12C363.679 10.8954 362.784 10 361.679 10V14ZM351.781 10C350.676 10 349.781 10.8954 349.781 12C349.781 13.1046 350.676 14 351.781 14V10ZM339.902 14C341.006 14 341.902 13.1046 341.902 12C341.902 10.8954 341.006 10 339.902 10V14ZM330.003 10C328.899 10 328.003 10.8954 328.003 12C328.003 13.1046 328.899 14 330.003 14V10ZM318.125 14C319.229 14 320.125 13.1046 320.125 12C320.125 10.8954 319.229 10 318.125 10V14ZM308.226 10C307.121 10 306.226 10.8954 306.226 12C306.226 13.1046 307.121 14 308.226 14V10ZM296.347 14C297.452 14 298.347 13.1046 298.347 12C298.347 10.8954 297.452 10 296.347 10V14ZM286.448 10C285.344 10 284.448 10.8954 284.448 12C284.448 13.1046 285.344 14 286.448 14V10ZM274.57 14C275.674 14 276.57 13.1046 276.57 12C276.57 10.8954 275.674 10 274.57 10V14ZM264.671 10C263.566 10 262.671 10.8954 262.671 12C262.671 13.1046 263.566 14 264.671 14V10ZM252.792 14C253.897 14 254.792 13.1046 254.792 12C254.792 10.8954 253.897 10 252.792 10V14ZM242.894 10C241.789 10 240.894 10.8954 240.894 12C240.894 13.1046 241.789 14 242.894 14V10ZM231.015 14C232.12 14 233.015 13.1046 233.015 12C233.015 10.8954 232.12 10 231.015 10V14ZM221.116 10C220.012 10 219.116 10.8954 219.116 12C219.116 13.1046 220.012 14 221.116 14V10ZM209.238 14C210.342 14 211.238 13.1046 211.238 12C211.238 10.8954 210.342 10 209.238 10V14ZM199.339 10C198.234 10 197.339 10.8954 197.339 12C197.339 13.1046 198.234 14 199.339 14V10ZM187.46 14C188.565 14 189.46 13.1046 189.46 12C189.46 10.8954 188.565 10 187.46 10V14ZM177.562 10C176.457 10 175.562 10.8954 175.562 12C175.562 13.1046 176.457 14 177.562 14V10ZM165.683 14C166.788 14 167.683 13.1046 167.683 12C167.683 10.8954 166.788 10 165.683 10V14ZM155.784 10C154.68 10 153.784 10.8954 153.784 12C153.784 13.1046 154.68 14 155.784 14V10ZM143.906 14C145.01 14 145.906 13.1046 145.906 12C145.906 10.8954 145.01 10 143.906 10V14ZM134.007 10C132.902 10 132.007 10.8954 132.007 12C132.007 13.1046 132.902 14 134.007 14V10ZM122.128 14C123.233 14 124.128 13.1046 124.128 12C124.128 10.8954 123.233 10 122.128 10V14ZM112.23 10C111.125 10 110.23 10.8954 110.23 12C110.23 13.1046 111.125 14 112.23 14V10ZM100.351 14C101.456 14 102.351 13.1046 102.351 12C102.351 10.8954 101.456 10 100.351 10V14ZM90.4523 10C89.3477 10 88.4523 10.8954 88.4523 12C88.4523 13.1046 89.3477 14 90.4523 14V10ZM78.5737 14C79.6783 14 80.5737 13.1046 80.5737 12C80.5737 10.8954 79.6783 10 78.5737 10V14ZM68.6749 10C67.5704 10 66.6749 10.8954 66.6749 12C66.6749 13.1046 67.5704 14 68.6749 14V10ZM56.7964 14C57.901 14 58.7964 13.1046 58.7964 12C58.7964 10.8954 57.901 10 56.7964 10V14ZM46.8976 10C45.793 10 44.8976 10.8954 44.8976 12C44.8976 13.1046 45.793 14 46.8976 14V10ZM35.019 14C36.1236 14 37.019 13.1046 37.019 12C37.019 10.8954 36.1236 10 35.019 10V14ZM770.5 10H765.551V14H770.5V10ZM753.672 10L743.773 10V14L753.672 14V10ZM731.895 10H721.996V14H731.895V10ZM710.117 10L700.218 10V14L710.117 14V10ZM688.34 10H678.441V14H688.34V10ZM666.563 10L656.664 10V14L666.563 14V10ZM644.785 10H634.886V14H644.785V10ZM623.008 10L613.109 10V14L623.008 14V10ZM601.23 10H591.332V14H601.23V10ZM579.453 10L569.554 10V14L579.453 14V10ZM557.676 10H547.777V14H557.676V10ZM535.898 10L525.999 10V14L535.898 14V10ZM514.121 10H504.222V14H514.121V10ZM492.344 10L482.445 10V14L492.344 14V10ZM470.566 10H460.667V14H470.566V10ZM448.789 10L438.89 10V14L448.789 14V10ZM427.011 10H417.113V14H427.011V10ZM405.234 10L395.335 10V14L405.234 14V10ZM383.457 10H373.558V14H383.457V10ZM361.679 10L351.781 10V14L361.679 14V10ZM339.902 10H330.003V14H339.902V10ZM318.125 10L308.226 10V14L318.125 14V10ZM296.347 10H286.448V14H296.347V10ZM274.57 10L264.671 10V14L274.57 14V10ZM252.792 10H242.894V14H252.792V10ZM231.015 10L221.116 10V14L231.015 14V10ZM209.238 10L199.339 10V14H209.238V10ZM187.46 10L177.562 10V14L187.46 14V10ZM165.683 10H155.784V14H165.683V10ZM143.906 10L134.007 10V14L143.906 14V10ZM122.128 10L112.23 10V14H122.128V10ZM100.351 10L90.4523 10V14L100.351 14V10ZM78.5737 10H68.6749V14H78.5737V10ZM56.7964 10L46.8976 10V14L56.7964 14V10ZM35.019 10H30.0693V14H35.019V10Z" fill="url(#paint0_linear)"></path><circle cx="12.5" cy="12.5" r="12.5" transform="rotate(-180 12.5 12.5)" fill="#FEC72F"></circle><circle cx="12.4997" cy="12.5002" r="6.73077" transform="rotate(-180 12.4997 12.5002)" fill="white"></circle><defs><linearGradient id="paint0_linear" x1="-216.749" y1="1554.71" x2="-216.749" y2="-3589.32" gradientUnits="userSpaceOnUse"><stop stop-color="white"></stop><stop offset="0.461534" stop-color="#FEC72F"></stop></linearGradient></defs></svg>