<svg xmlns="http://www.w3.org/2000/svg" xmlns:xlink="http://www.w3.org/1999/xlink" xmlns:v="https://vecta.io/nano" width="1845" height="1148" fill="none"><style><![CDATA[.B{stroke-linejoin:round}.C{stroke-width:3.392}.D{fill:#fff}.E{stroke:#263238}.F{fill:#263238}.G{stroke-linecap:round}.H{opacity:.3}.I{fill:#fec72f}.J{opacity:.2}]]></style><path d="M1746.1 976.623s76.32-138.617 73.5-364.93c-2.83-226.313-138.51-438.481-305.28-497.889s-382.09 80.173-588.976 42.292C727.478 164.583 695.141-62.453 406.271 17.621 225.44 67.748 124.006 333.845 171.659 492.879c48.053 115.985 138.506 172.563 39.573 254.602S110.003 857.011 81.737 888.129c-16.71 18.036 3.541 64.154.001 88.494H1746.1z" class="I"></path><path opacity=".7" d="M1746.1 976.622s98.26-124.479 95.44-350.792c0-189.994-38.42-349.134-205.19-408.541s-181.16-50.626-379.03-42.139c-197.86 8.487-378.6-214.292-667.081-147.272C307.574 146.692 178.776 376.893 226.83 492.878s138.505 172.564 39.573 254.602-108.378 107.148-136.644 138.266c-16.71 18.035 3.539 66.537-.001 90.876H1746.1z" class="D"></path><path d="M1744.46 383.682c-10.02 0-19.8 2.971-28.13 8.538-8.32 5.568-14.81 13.481-18.64 22.738-3.84 9.258-4.84 19.446-2.89 29.274 1.96 9.828 6.78 18.856 13.86 25.942a50.61 50.61 0 0 0 25.92 13.866c9.82 1.955 20 .951 29.25-2.883a50.62 50.62 0 0 0 22.72-18.661c5.56-8.332 8.53-18.128 8.53-28.149a50.72 50.72 0 0 0-14.84-35.809 50.66 50.66 0 0 0-35.78-14.856zm5.14 81.642v4.866h-8.48v-4.866c-7.52-1.528-11.3-7.355-11.3-16.436v-4.583h9.92v5.262c0 4.753 2.09 6.478 5.42 6.478 3.34 0 5.43-1.725 5.43-6.478 0-13.777-20.49-14.427-20.49-33.523 0-8.996 3.7-14.71 11.05-16.351v-4.95h8.48v4.95c7.43 1.528 11.31 7.271 11.31 16.351v2.15h-9.92v-2.829c0-4.78-1.9-6.591-5.23-6.591-3.34 0-5.35 1.811-5.35 6.591 0 13.749 20.53 14.428 20.53 33.523 0 9.081-3.93 14.908-11.37 16.436h0zm-5.14-101.981c-14.03 0-27.75 4.164-39.41 11.966a71 71 0 0 0-26.14 31.867c-5.37 12.974-6.77 27.251-4.03 41.025a70.97 70.97 0 0 0 19.41 36.356c9.93 9.93 22.57 16.693 36.33 19.433s28.03 1.333 40.99-4.041c12.97-5.374 24.05-14.475 31.84-26.152 7.8-11.677 11.96-25.405 11.96-39.449a70.97 70.97 0 0 0-5.4-27.172c-3.56-8.615-8.79-16.443-15.38-23.036a70.94 70.94 0 0 0-23.02-15.392c-8.6-3.569-17.83-5.405-27.15-5.405h0zm0 129.338c-11.53.022-22.81-3.38-32.41-9.776s-17.09-15.498-21.52-26.155-5.6-22.389-3.36-33.712 7.78-21.727 15.93-29.896c8.14-8.17 18.53-13.737 29.84-15.996s23.03-1.112 33.69 3.3 19.76 11.888 26.17 21.483a58.45 58.45 0 0 1-7.21 73.61c-10.91 10.933-25.69 17.097-41.13 17.142h0z" class="J B C" stroke="#000"></path><path d="M75.037 976.625l1713.463 1.443" class="B C E G"></path><g class="I"><path d="M18.146 729.376c8.48 3.649 28.804 3.168 28.832 3.168s-4.41-13.381-4.805-14.145c-4.466-9.392-18.656-24.894-30.217-23.338a13.78 13.78 0 0 0-5.342 2.093 13.8 13.8 0 0 0-4.029 4.086c-1.042 1.63-1.73 3.461-2.02 5.374a13.82 13.82 0 0 0 .339 5.732c1.922 7.807 10.119 13.748 17.243 17.03zm7.064 59.126c8.65 1.245 26.91-4.045 28.267-4.469 3.005 10.448 6.707 20.684 11.08 30.637 2.487 5.827 5.201 11.598 7.999 17.369l-3.42-4.894c-6.812-7.864-24.564-19.095-35.305-14.512a13.76 13.76 0 0 0-4.605 3.422c-1.278 1.451-2.236 3.156-2.812 5.002a13.79 13.79 0 0 0-.531 5.716c.226 1.921.854 3.774 1.842 5.436 3.957 7.214 13.455 10.778 21.143 11.91s23.433-3.056 27.56-4.244l3.279 6.62 15.49 31.457c1.724 3.678 3.307 7.356 4.89 11.033-1.498-2.15-2.826-3.96-2.826-4.215-6.812-7.893-24.592-19.095-35.305-14.54a13.8 13.8 0 0 0-4.631 3.412c-1.287 1.45-2.254 3.157-2.838 5.006a13.82 13.82 0 0 0-.552 5.729c.22 1.927.844 3.787 1.831 5.457 3.957 7.214 13.427 10.778 21.115 11.91s21.935-2.688 26.853-4.046l4.296 11.316c.82 2.603 1.781 5.035 2.46 7.695s1.469 5.176 2.176 7.751l3.505 14.993 2.064 9.901c-1.668-3.677-5.117-10.806-5.484-11.315-5.653-8.827-21.398-22.632-32.676-19.803-1.861.53-3.59 1.446-5.074 2.688s-2.691 2.784-3.541 4.523a13.82 13.82 0 0 0-1.395 5.574c-.069 1.935.269 3.864.993 5.66 2.827 7.723 11.674 12.702 19.08 14.965 8.197 2.517 26.287.226 28.549 0 1.102 5.431 2.092 10.693 2.826 15.7l1.781 10.665h7.265l-2.262-11.938c-1.074-5.516-2.346-11.316-3.702-17.369 5.455-2.187 10.778-4.69 15.942-7.497 5.964 6.478 21.228 14.144 23.207 14.993a531.01 531.01 0 0 1-6.191 14.711l-3.137 7.1h7.688l1.809-4.413c2.148-5.177 4.325-10.778 6.502-16.521 2.176.453 20.125 4.102 28.464 2.207 7.575-1.698 16.762-5.998 20.154-13.494a13.84 13.84 0 0 0 1.404-5.566c.074-1.934-.258-3.861-.974-5.658a13.82 13.82 0 0 0-3.186-4.774c-1.384-1.351-3.035-2.397-4.848-3.069-11.052-3.706-27.899 8.826-33.92 17.2-.367.509-3.731 6.308-5.794 10.014l2.629-7.072c1.78-4.809 3.392-9.675 5.144-14.88l2.318-7.695c.791-2.574 1.357-5.375 2.063-8.091 1.499-6.308 2.827-12.786 3.788-19.321 4.212 1.527 19.25 6.761 27.023 6.223s17.469-3.394 21.963-10.297a13.77 13.77 0 0 0 2.251-5.289 13.8 13.8 0 0 0-2.539-10.954 13.77 13.77 0 0 0-4.348-3.757c-10.345-5.347-28.916 4.526-36.266 11.853-.48.453-5.172 6.337-7.688 9.59l1.752-11.853c1.442-11.57 2.516-23.31 3.675-35.022l1.102-10.722c1.499.538 19.222 7.157 27.956 6.535 7.745-.537 17.469-3.395 21.935-10.297 1.113-1.583 1.88-3.383 2.25-5.283a13.75 13.75 0 0 0-.103-5.741 13.74 13.74 0 0 0-2.437-5.199c-1.169-1.542-2.65-2.82-4.346-3.749-10.345-5.347-28.888 4.498-36.266 11.825-.565.565-7.321 9.024-8.932 11.315l2.827-23.395a240.19 240.19 0 0 1 6.727-30.778c.678.254 19.165 7.242 28.097 6.619 7.745-.566 17.469-3.394 21.963-10.297 1.109-1.587 1.873-3.389 2.24-5.29a13.83 13.83 0 0 0-.105-5.744c-.437-1.886-1.266-3.659-2.432-5.204a13.79 13.79 0 0 0-4.339-3.762c-10.373-5.347-28.916 4.497-36.294 11.853-.565.565-7.83 9.675-9.017 11.315.17-.594.283-1.216.452-1.782a177.43 177.43 0 0 1 12.183-29.138c2.657-5.177 5.484-9.986 8.48-14.625 3.307 1.669 18.486 9.052 26.599 9.363s17.723-1.442 22.952-7.807c1.279-1.455 2.237-3.162 2.813-5.012s.756-3.799.529-5.723-.855-3.778-1.845-5.442a13.79 13.79 0 0 0-3.899-4.22c-9.724-6.45-29.228 1.302-37.369 7.808-.452.34-4.551 4.441-7.49 7.44l3.929-6.167c4.89-7.327 9.808-13.777 14.133-19.406l7.095-8.685c4.099 0 20.578-.566 27.786-3.961s15.066-9.448 16.79-17.511c.462-1.879.523-3.835.181-5.74a13.82 13.82 0 0 0-2.169-5.317c-1.088-1.601-2.5-2.955-4.144-3.974a13.78 13.78 0 0 0-5.4-1.942c-11.59-1.273-25.44 14.625-29.567 24.131-.368.82-4.636 14.342-4.41 14.342h.255l-7.011 8.204c-4.522 5.658-9.582 11.91-14.642 19.152-5.512 7.778-10.58 15.863-15.179 24.215a179.41 179.41 0 0 0-12.974 29.251c.012.123.012.246 0 .368l-.17-13.72c-1.356-10.297-9.978-29.477-21.454-31.599-1.912-.3-3.866-.194-5.734.313a13.76 13.76 0 0 0-5.108 2.627 13.77 13.77 0 0 0-3.592 4.484 13.79 13.79 0 0 0-1.452 5.561c-.678 8.203 5.258 16.407 11.052 21.584 6.53 5.856 24.677 11.514 26.119 11.938a249.04 249.04 0 0 0-7.66 31.684c-1.103 6.224-2.036 12.56-2.827 18.897 0-2.97 0-5.658-.141-5.969-1.357-10.325-10.007-29.477-21.455-31.599-1.912-.3-3.866-.194-5.734.313s-3.609 1.402-5.108 2.627a13.77 13.77 0 0 0-3.592 4.484 13.79 13.79 0 0 0-1.452 5.561c-.678 8.175 5.258 16.408 11.053 21.585s21.256 10.382 25.44 11.683l-.905 7.299-4.41 34.795c-.593 4.045-1.3 7.978-2.035 11.91v-5.149c-1.328-10.325-9.978-29.505-21.426-31.627a13.77 13.77 0 0 0-5.73.323 13.78 13.78 0 0 0-5.103 2.628c-1.498 1.224-2.722 2.75-3.592 4.479a13.82 13.82 0 0 0-1.461 5.555c-.678 8.204 5.258 16.407 11.053 21.584s19.786 9.902 24.592 11.457c-.848 4.018-1.696 8.063-2.827 11.91-.763 2.603-1.3 5.177-2.177 7.78l-2.487 7.666-5.342 14.427-3.732 9.421c.622-3.989 1.696-11.853 1.725-12.532-.152-9.153-2.622-18.118-7.18-26.055.033-1.022-.034-2.045-.198-3.055-.239-1.932-.884-3.792-1.894-5.456a13.79 13.79 0 0 0-3.962-4.2 13.77 13.77 0 0 0-5.335-2.205c-1.914-.349-3.88-.289-5.769.178-11.306 2.998-18.401 22.631-18.938 33.155 0 .622.367 7.298.678 11.542l-1.696-7.356c-1.187-4.978-2.487-9.929-3.901-15.247l-2.346-7.695c-.791-2.574-1.809-5.234-2.827-7.893-2.233-6.082-4.777-12.164-7.49-18.218 4.381-1.047 19.786-4.979 25.977-9.731s12.691-12.476 12.635-20.708c.058-1.937-.293-3.864-1.03-5.655a13.78 13.78 0 0 0-3.246-4.743 13.76 13.76 0 0 0-4.897-3.004c-1.825-.646-3.766-.899-5.695-.743-11.59 1.273-21.652 19.803-23.744 29.93 0 .623-.82 8.119-1.103 12.221l-5.088-10.863c-5.173-10.439-10.741-20.821-16.253-31.118l-4.975-9.562c1.555-.339 19.984-4.639 26.91-9.957 6.162-4.725 12.692-12.476 12.635-20.708.058-1.937-.293-3.864-1.029-5.655a13.78 13.78 0 0 0-3.246-4.743 13.77 13.77 0 0 0-4.897-3.004 13.75 13.75 0 0 0-5.696-.743c-11.589 1.245-21.652 19.803-23.744 29.902-.17.792-1.131 11.542-1.244 14.314-3.646-7.044-7.208-14.144-10.459-21.16a244.18 244.18 0 0 1-11.307-29.364c.735-.17 19.984-4.555 27.079-10.014 6.162-4.725 12.692-12.476 12.635-20.708a13.79 13.79 0 0 0-1.032-5.663 13.78 13.78 0 0 0-3.253-4.746 13.74 13.74 0 0 0-4.907-3.002 13.77 13.77 0 0 0-5.704-.734c-11.561 1.245-21.624 19.803-23.716 29.902-.17.82-1.215 12.391-1.244 14.512-.17-.565-.424-1.16-.594-1.754a177.84 177.84 0 0 1-5.908-31.118c-.65-5.799-.933-11.315-1.102-16.803 3.675-.453 20.408-2.66 27.334-6.875s13.992-11.004 14.84-19.18a13.76 13.76 0 0 0-.4-5.733 13.75 13.75 0 0 0-2.707-5.068 13.74 13.74 0 0 0-4.54-3.518c-1.744-.84-3.646-1.3-5.581-1.353-11.646 0-23.659 17.2-26.881 27.101-.17.566-1.329 6.224-2.12 10.354 0-2.433-.141-4.979 0-7.327 0-8.798.565-16.973 1.102-24.017l1.159-11.146c3.364-2.32 16.96-11.854 20.974-18.643s7.349-16.21 4.325-23.876a13.77 13.77 0 0 0-3.002-4.898 13.76 13.76 0 0 0-4.738-3.247 13.77 13.77 0 0 0-11.226.337c-10.346 5.347-13.059 26.196-11.307 36.465.17.905 4.07 14.512 4.24 14.399h.198c-.452 3.282-.904 6.818-1.3 10.665-.707 7.157-1.442 15.248-1.668 24.074a247.89 247.89 0 0 0 .678 28.601 179.02 179.02 0 0 0 5.314 31.542v.368c-1.837-2.829-7.236-10.779-7.717-11.316-6.812-7.893-24.564-19.095-35.305-14.541a13.81 13.81 0 0 0-7.419 8.441c-.576 1.849-.756 3.798-.53 5.722a13.81 13.81 0 0 0 1.843 5.442c3.844 7.185 13.342 10.75 21.03 11.881z"></path><path d="M224.938 733.733c.17 0 3.703-13.607 3.844-14.512 1.442-10.297-1.865-31.118-12.352-36.125-1.764-.794-3.676-1.207-5.61-1.212a13.77 13.77 0 0 0-5.616 1.182c-1.768.785-3.351 1.934-4.646 3.372s-2.272 3.133-2.869 4.975c-2.826 7.723.735 17.2 4.975 23.734 4.947 7.667 22.246 18.558 22.274 18.586zm1207.412-89.534c11.31 4.894 38.64 4.271 38.67 4.271s-5.91-17.963-6.42-19.038c-6.02-12.617-25.04-33.41-40.53-31.317a18.46 18.46 0 0 0-7.18 2.792 18.36 18.36 0 0 0-5.42 5.485 18.41 18.41 0 0 0-2.71 7.221 18.37 18.37 0 0 0 .47 7.7c2.57 10.721 13.57 18.699 23.12 22.886zm9.47 79.522c11.61 1.697 36.09-5.403 38.04-5.997 4.04 14.026 9.01 27.767 14.87 41.132 3.36 7.808 6.98 15.559 10.74 23.282l-4.58-6.563c-9.16-10.552-32.98-25.602-47.37-19.491-2.36 1.083-4.47 2.652-6.18 4.603a18.43 18.43 0 0 0-3.78 6.723 18.65 18.65 0 0 0-.71 7.679c.3 2.581 1.14 5.07 2.47 7.304 5.31 9.675 18.03 14.456 28.27 15.955 10.23 1.499 31.46-4.102 37-5.658l4.38 8.855 20.78 42.207c2.34 4.951 4.43 9.901 6.55 14.823l-3.98-5.657c-9.13-10.58-32.96-25.602-47.35-19.492-2.36 1.077-4.47 2.641-6.19 4.589a18.54 18.54 0 0 0-3.78 6.718c-.77 2.48-1.01 5.096-.71 7.676.31 2.58 1.15 5.067 2.48 7.298 5.32 9.675 18.04 14.456 28.27 15.983s29.4-3.592 35.98-5.403c2.04 5.12 4.07 10.241 5.66 15.305 1.1 3.479 2.4 6.761 3.3 10.325.91 3.565 1.95 6.959 2.83 10.41l4.69 20.114 2.83 13.296c-2.26-4.951-6.87-14.512-7.35-15.276-7.41-11.825-28.72-30.298-43.84-26.451a18.49 18.49 0 0 0-6.81 3.609 18.54 18.54 0 0 0-4.75 6.07c-1.14 2.335-1.78 4.883-1.87 7.48s.36 5.185 1.33 7.594c3.79 10.383 15.63 16.974 25.61 20.086 10.97 3.366 35.28.283 38.3 0l3.99 21.047 2.4 14.314h9.72l-3.02-16.011-4.98-23.311a197.49 197.49 0 0 0 21.37-10.042c8 8.656 28.5 18.812 31.1 20.085l-8.29 19.802-4.24 9.534h10.32l2.43-5.913 8.71-22.178c2.83.622 26.99 5.516 38.22 2.829 10.17-2.292 22.61-8.063 27.02-18.105a18.67 18.67 0 0 0 1.87-7.442 18.61 18.61 0 0 0-1.32-7.559c-.96-2.4-2.41-4.571-4.27-6.373-1.85-1.802-4.06-3.194-6.49-4.087-14.81-5.007-37.42 11.853-45.7 23.084-.48.651-4.98 8.487-7.75 13.409l3.54-9.477c2.37-6.449 4.52-12.956 6.89-19.972l3.08-10.325c1.11-3.452 1.84-7.214 2.83-10.835 2.01-8.487 3.65-17.143 5.09-25.941 5.65 2.065 25.81 9.081 36.24 8.345s23.46-4.554 29.48-13.805a18.42 18.42 0 0 0 3-7.093 18.36 18.36 0 0 0-.14-7.704c-.58-2.53-1.69-4.907-3.26-6.978s-3.55-3.79-5.82-5.043c-13.91-7.186-38.78 6.026-48.68 15.899-.62.594-6.92 8.486-10.31 12.871l2.34-15.927c1.92-15.531 3.39-31.259 4.92-46.988l1.5-14.399c2.01.764 25.78 9.618 37.48 8.798 10.4-.736 23.46-4.555 29.48-13.805 1.49-2.13 2.52-4.549 3.01-7.1.5-2.552.45-5.179-.14-7.71a18.67 18.67 0 0 0-3.26-6.986c-1.57-2.074-3.55-3.794-5.83-5.051-13.9-7.157-38.81 6.054-48.67 15.899-.76.764-9.81 12.079-11.99 15.078 1.13-10.552 2.35-21.076 3.96-31.401a329.01 329.01 0 0 1 8.99-41.302c.93.339 25.72 9.703 37.71 8.883 10.4-.736 23.43-4.555 29.45-13.834a18.59 18.59 0 0 0 3.01-7.093c.49-2.549.44-5.174-.14-7.704-.59-2.529-1.7-4.907-3.27-6.978-1.56-2.071-3.54-3.79-5.82-5.043-13.88-7.185-38.78 6.054-48.67 15.899-.77.763-10.52 12.956-12.13 15.304.26-.792.4-1.613.65-2.405 4.39-13.544 9.98-26.666 16.71-39.208 3.56-6.959 7.35-13.438 11.3-19.633 4.44 2.235 24.82 12.136 35.7 12.56 10.41.425 23.8-1.952 30.79-10.467 1.71-1.949 3-4.239 3.77-6.72.78-2.48 1.02-5.096.72-7.677-.31-2.581-1.15-5.069-2.48-7.301s-3.11-4.16-5.24-5.657c-13.03-8.657-39.23 1.754-50.14 10.439-.59.48-6.08 5.968-10.04 10.014l5.29-8.289c6.56-9.845 13.14-18.473 19.05-26.054 3.37-4.3 6.53-8.091 9.53-11.627 5.48 0 27.59-.764 37.25-5.318 9.67-4.555 20.21-12.702 22.62-23.509.62-2.521.7-5.145.25-7.701-.46-2.557-1.45-4.988-2.91-7.136a18.47 18.47 0 0 0-5.56-5.332 18.41 18.41 0 0 0-7.25-2.603c-15.54-1.698-33.92 19.632-39.57 32.391-.48 1.103-6.16 19.236-5.88 19.208h.31l-9.35 10.976c-6.08 7.497-12.89 15.984-19.79 25.743-7.42 10.422-14.22 21.265-20.38 32.476-6.95 12.523-12.77 25.645-17.38 39.209a4.44 4.44 0 0 0-.15.509l-.25-18.388c-1.81-13.833-13.4-39.605-28.77-42.434-2.57-.395-5.19-.246-7.69.436-2.51.683-4.84 1.885-6.85 3.528a18.55 18.55 0 0 0-4.82 6.01c-1.17 2.32-1.83 4.858-1.96 7.453-.9 11.004 7.07 22.009 14.84 28.968 8.76 7.836 33.1 15.417 35.02 16.011-4.34 13.904-7.77 28.079-10.26 42.434-1.49 8.487-2.82 16.832-3.87 25.46 0-3.96 0-7.496-.2-7.977-1.81-13.862-13.4-39.605-28.77-42.434a18.51 18.51 0 0 0-7.7.414 18.48 18.48 0 0 0-6.85 3.518c-2.02 1.641-3.66 3.688-4.83 6.009a18.46 18.46 0 0 0-1.96 7.457c-.88 11.004 7.09 22.009 14.86 28.968 7.78 6.959 28.5 13.947 33.92 15.7l-1.24 9.788-5.91 46.678c-.79 5.403-1.75 10.693-2.82 15.983 0-3.508 0-6.478-.2-6.931-1.78-13.862-13.37-39.605-28.75-42.434-2.57-.399-5.19-.254-7.69.427-2.51.68-4.85 1.882-6.86 3.525s-3.66 3.693-4.83 6.014a18.48 18.48 0 0 0-1.96 7.46c-.9 11.005 7.1 22.009 14.87 28.969s26.48 13.239 32.99 15.361c-1.13 5.374-2.27 10.778-3.62 15.955-.99 3.508-1.73 6.959-2.83 10.438l-3.33 10.298-7.18 19.378-5.01 12.617c.85-5.375 2.29-15.899 2.29-16.804a71.6 71.6 0 0 0-9.61-34.965c.03-1.363-.06-2.726-.25-4.074-.33-2.579-1.19-5.06-2.53-7.283-1.35-2.223-3.14-4.137-5.28-5.618-2.13-1.481-4.55-2.496-7.1-2.978a18.5 18.5 0 0 0-7.71.178c-15.12 4.017-24.67 30.553-25.44 44.499 0 .821.51 9.788.94 15.446l-2.29-9.845c-1.59-6.704-3.37-13.324-5.23-20.453l-3.14-10.353c-.96-3.452-2.43-7.016-3.65-10.552-2.99-8.176-6.41-16.323-10.03-24.442 5.85-1.415 26.51-6.676 34.82-13.07s16.96-16.719 16.96-27.78a18.4 18.4 0 0 0-1.39-7.579 18.52 18.52 0 0 0-4.36-6.352 18.46 18.46 0 0 0-6.57-4.025c-2.44-.865-5.05-1.205-7.63-.997-15.55 1.697-29.03 26.478-31.86 40.142-.17.849-1.1 10.891-1.5 16.436l-6.81-14.597c-6.95-13.975-14.41-27.922-21.79-41.897l-6.7-12.815c2.09-.48 26.82-6.223 36.12-13.38 8.26-6.337 16.96-16.719 16.96-27.78.07-2.597-.41-5.178-1.4-7.578-1-2.399-2.49-4.561-4.37-6.346-1.89-1.786-4.13-3.154-6.57-4.015-2.45-.862-5.05-1.198-7.64-.987-15.52 1.669-29 26.451-31.83 40.114-.23 1.047-1.53 15.503-1.67 19.18-4.89-9.42-9.69-18.868-14.13-28.289a325.02 325.02 0 0 1-15.26-39.406c.98-.227 26.79-6.111 36.32-13.41 8.28-6.365 16.96-16.747 16.96-27.779.07-2.598-.4-5.182-1.39-7.585s-2.47-4.569-4.36-6.357c-1.88-1.789-4.12-3.16-6.57-4.024a18.45 18.45 0 0 0-7.64-.988c-15.55 1.669-29.03 26.45-31.85 40.142-.2 1.075-1.62 16.606-1.67 19.435-.23-.764-.57-1.556-.79-2.32a239.54 239.54 0 0 1-7.83-41.726c-.88-7.78-1.28-15.248-1.5-22.632 4.92-.594 27.39-3.592 36.74-9.222 9.36-5.63 18.8-14.767 19.93-25.771.35-2.573.16-5.191-.57-7.684a18.53 18.53 0 0 0-9.73-11.504c-2.34-1.128-4.88-1.752-7.48-1.831-15.63 0-31.74 23.112-36.04 36.408-.25.707-1.81 8.317-2.82 13.862 0-3.282-.17-6.677 0-9.817 0-11.825.76-22.631 1.49-32.249l1.56-14.937c4.52-3.112 22.61-15.899 28.27-25.008 5.65-9.109 9.86-21.782 5.79-32.051-.87-2.447-2.24-4.682-4.03-6.562s-3.96-3.361-6.36-4.349a18.45 18.45 0 0 0-7.57-1.381 18.51 18.51 0 0 0-7.48 1.825c-13.91 7.185-17.55 35.163-15.26 48.94.22 1.188 5.45 19.435 5.65 19.293l.25-.198a404.18 404.18 0 0 0-1.75 14.343c-.96 9.59-1.95 20.424-2.23 32.306a322.61 322.61 0 0 0 .93 38.332 239.12 239.12 0 0 0 7.1 42.433v.481c-2.46-3.875-9.7-14.455-10.35-15.191-9.13-10.58-32.96-25.602-47.35-19.491-2.36 1.083-4.46 2.652-6.18 4.603-1.71 1.951-3 4.242-3.77 6.723-.78 2.481-1.02 5.098-.72 7.679a18.61 18.61 0 0 0 2.48 7.304c5.03 9.703 17.75 14.484 28.07 15.983zm267.99-73.553c.22.17 4.97-18.247 5.14-19.435 1.92-13.833-2.48-41.698-16.56-48.487a18.49 18.49 0 0 0-7.53-1.627 18.45 18.45 0 0 0-7.53 1.584 18.43 18.43 0 0 0-6.24 4.519 18.44 18.44 0 0 0-3.86 6.67c-3.76 10.382 1.02 23.112 6.67 31.853 6.64 10.354 29.88 24.923 29.91 24.923z"></path></g><g stroke="#000" class="B C H"><path d="M182.346 442.555c18.373 5.884 61.31.424 61.338.424.452 0-12.183-27.214-13.172-28.855-11.476-18.784-44.718-48.317-68.659-42.433-17.271 4.158-25.186 22.631-19.533 38.784s24.366 27.101 40.026 32.08z" class="H"></path><path d="M458.399 729.633c10.458-11.316 19.786-26.903 18.034-42.236-1.894-16.974-16.96-30.213-34.401-26.479-24.111 5.177-41.241 46.225-43.445 68.149l.339 25.997-13.059-21.754c-13.172-20.849-27.136-41.5-40.987-62.236l-12.607-19.039c1.923-.65 16.112-5.657 30.132-12.079m65.952 171.006c-2.036-4.752-4.58-9.561-6.813-14.399-6.02-12.334-12.691-24.555-19.786-36.776 13.815-4.768 27.236-10.614 40.138-17.482m167.897-154.374a97.29 97.29 0 0 0-16.31 15.248c-1.046 1.273-13.398 20.538-16.31 25.46 0-16.747.226-33.438 1.074-49.874 1.05-22.22 3.524-44.35 7.406-66.253 1.527.396 41.92 11.033 60.575 7.78 16.197-2.829 36.04-10.976 43.983-26.479s2.431-34.597-14.133-41.076c-22.953-8.967-59.84 15.814-73.747 32.872-1.103 1.33-14.388 22.066-16.536 25.998.254-1.273.339-2.603.593-3.876 4.526-21.848 10.977-43.253 19.278-63.961 4.466-11.514 9.356-22.236 14.331-32.589 7.321 2.829 40.93 14.993 58.031 13.89 16.423-1.047 37.029-6.931 46.612-21.444s6.19-34.145-9.526-42.433c-21.822-11.316-61.225 9.109-76.913 24.555-.877.82-8.48 10.325-14.134 17.313l6.954-13.862c8.65-16.521 17.582-31.118 25.61-43.961 4.607-7.271 8.932-13.777 13.059-19.803 8.48-1.046 43.163-5.658 57.578-14.399s29.511-22.971 31.461-40.34-10.204-33.155-27.956-33.212c-24.648 0-50.144 36.324-56.985 57.286-.593 1.81-6.558 31.118-6.134 31.118h.538c-4.071 5.658-8.48 11.91-12.918 18.756-8.339 12.73-17.61 27.157-26.656 43.537-9.935 17.564-18.844 35.69-26.683 54.286a381.48 381.48 0 0 0-20.946 64.358v.792c-.622-7.185-3.024-27.27-3.392-28.798-5.059-21.415-27.446-59.86-52.01-61.812-17.695-1.414-31.093 13.72-30.613 30.779s14.671 33.381 27.984 43.028c15.038 10.863 54.441 18.784 57.579 19.434a516.08 516.08 0 0 0-9.243 68.29c-.961 13.381-1.526 26.875-1.95 40.425l-1.612-12.532c-5.059-21.443-27.446-59.86-52.01-61.812-17.695-1.414-31.093 13.721-30.613 30.779s14.671 33.381 27.984 42.999 46.979 17.229 55.855 19.096c0 5.177-.255 10.382-.339 15.559l-1.696 74.202c-.34 8.487-1.018 16.974-1.64 25.46l-1.441-10.834c-5.06-21.444-27.419-59.86-51.982-61.84-17.724-1.387-31.094 13.748-30.641 30.778s14.67 33.41 27.983 43.028 43.729 16.492 54.272 18.727l-3.081 25.63c-.989 5.658-1.555 11.316-2.827 16.974l-3.533 16.662-8.112 31.571-5.654 20.594c.453-8.487.99-25.29.877-26.705-2.275-19.243-9.438-37.582-20.805-53.268a34.74 34.74 0 0 0-1.074-6.365c-4.409-16.465-21.426-27.271-38.018-20.963-23.037 8.77-33.75 51.939-32.591 73.948 0 1.273 2.374 15.276 3.957 24.074l-5.173-15.078c-3.561-10.241-7.434-20.34-11.561-31.118m-118.183-40.877a83.51 83.51 0 0 0 25.976 5.121c15.886.65 45.538-10.411 55.572-14.343 4.014 7.723 8.028 15.418 11.561 23.084 2.29 5.29 4.862 10.212 6.869 15.644s4.184 10.608 6.247 15.842l10.628 30.807 6.53 20.396c-4.325-7.383-13.116-21.641-13.992-22.773-13.568-17.313-49.975-42.829-73.097-34.314-16.678 6.138-22.416 25.46-14.925 40.793s27.277 24.158 43.417 27.327c17.752 3.451 55.375-5.29 60.067-6.422l9.639 32.363 6.105 22.065 15.264-1.584-7.377-24.64-11.561-35.729a317.45 317.45 0 0 0 31.884-19.265c13.964 12.306 47.742 24.867 52.124 26.479-3.251 11.316-6.53 22.094-9.809 32.306l-5.06 15.616 16.141-1.669 2.826-9.675c3.336-11.316 6.699-23.593 10.035-36.182 4.72.481 43.248 4.215 60.405-1.556 15.575-5.262 33.92-16.323 39.574-32.815s-2.827-34.598-20.183-38.473c-24.026-5.404-56.759 24.696-67.839 43.678-.679 1.103-6.445 14.145-9.978 22.292l3.985-15.474c2.685-10.496 5.003-21.047 7.576-32.391l3.165-16.748c1.046-5.629 1.725-11.598 2.629-17.454 1.781-13.607 2.827-27.469 3.76-41.472 9.186 2.292 41.947 10.014 58.229 7.186s36.011-10.977 43.954-26.451 2.431-34.626-14.133-41.104c-22.953-8.967-59.869 15.814-73.776 32.872-.876 1.075-9.469 14.428-14.133 21.868l1.074-25.461c.509-24.639.226-49.59 0-74.485v-22.857c3.279.877 42.004 10.891 60.236 7.694 16.197-2.829 36.012-10.948 43.954-26.45s2.431-34.598-14.133-41.076c-10.798-4.215-24.676-.962-37.792 5.432M291.656 760.977a31.5 31.5 0 0 0 4.947 11.315 36.77 36.77 0 0 0 7.915 8.289m-87.631-215.112c19.588-2.093 49.41-14.144 52.067-15.304 8.574 21.333 18.565 42.068 29.906 62.066 6.557 11.712 13.511 23.282 20.634 34.796l-8.254-9.562c-16.027-15.078-55.883-34.767-77.45-22.857-15.547 8.486-18.288 28.572-8.48 42.603s30.641 19.803 47.036 20.425 48.675-11.57 57.126-14.937l8.282 13.183 39.573 62.802c4.438 7.355 8.48 14.767 12.692 22.179l-7.18-8.261c-16.027-15.078-55.882-34.767-77.45-22.857-4.896 2.694-8.844 6.833-11.306 11.853m35.443-351.69c.606-2.616.919-5.292.933-7.977 0-16.974-13.625-31.882-31.291-30.1-24.535 2.518-46.046 41.443-50.625 62.972-.255 1.159-1.499 13.352-2.234 22.235l-1.837-15.39c-1.894-18.557-2.487-35.644-2.827-50.92a603.26 603.26 0 0 1 0-23.706c6.587-5.658 32.874-28.601 40.111-43.82s11.928-35.729 3.9-51.175-26.796-22.037-41.636-12.278c-20.606 13.523-21.794 57.993-15.942 79.21.508 1.839 11.702 29.619 12.041 29.336l.396-.34c-.255 7.016-.424 14.569-.452 22.773 0 15.191.282 32.363 1.78 50.92a517.67 517.67 0 0 0 7.661 60.002 382.48 382.48 0 0 0 18.034 65.234c0 .255.226.51.311.736-4.467-5.658-17.554-21.075-18.685-22.15-16.027-15.078-55.883-34.768-77.45-22.83-15.546 8.487-18.288 28.544-8.48 42.575 7.434 10.722 20.974 16.465 34.174 18.954m175.626 70.496a67.82 67.82 0 0 0 13.709-9.42c11.957-11.316 24.027-29.025 22.105-46.338s-16.96-30.184-34.4-26.45c-24.112 5.177-41.241 46.224-43.418 68.12-.169 1.669.142 24.527.481 30.354-9.187-14.003-18.232-28.034-26.599-42.207-11.386-19.124-21.518-38.968-30.33-59.407 1.47-.51 41.043-13.947 54.809-26.96 11.928-11.316 23.998-29.025 22.076-46.337s-16.96-30.213-34.4-26.479c-24.112 5.177-41.213 46.224-43.418 68.148-.169 1.726.17 26.338.537 30.779-.509-1.16-1.159-2.348-1.639-3.536-8.281-20.726-14.694-42.15-19.165-64.018-2.629-12.023-4.466-23.678-6.021-35.079 7.632-1.726 42.4-10.099 56.053-20.453a84.51 84.51 0 0 0 17.412-17.511" class="H G"></path><path d="M618.495 406.881c.424.198 4.861-29.421 4.946-31.316.763-22.009-10.684-65.065-33.92-73.382-16.677-6.026-33.495 5.064-37.651 21.584s5.343 36.097 15.66 48.884c12.155 15.022 50.936 34.23 50.965 34.23z" class="H"></path></g><g stroke="#000" class="C H B"><path d="M1629.2 279.354a53.8 53.8 0 0 0 9.13 3.197c16.03 3.649 37.46 3.904 50.88-7.299 13.43-11.202 15.66-30.948 2.83-43.339-17.67-17.2-61.31-8.713-80.76 1.613-1.53.792-21.79 14.738-25.3 17.511.71-1.075 1.33-2.263 2.04-3.338 12.66-18.368 26.93-35.579 42.62-51.43 8.48-8.883 17.22-16.974 25.84-24.47 5.65 5.403 31.88 29.703 48.05 35.361 15.52 5.432 36.75 8.006 51.28-1.64 5.32-3.434 9.43-8.454 11.75-14.353a30.25 30.25 0 0 0 1.17-18.519m-7.67-12.504c-17.44-16.068-58.48-12.391-77.96-4.668-1.1.453-11.92 6.196-19.78 10.467l11.78-10.042c14.39-11.854 28.27-21.84 40.65-30.581 7.1-4.894 13.6-9.194 19.79-13.154 8.31 2.376 41.97 11.513 58.65 9.109s36.32-9.873 44.75-25.121c8.42-15.248 3.45-34.513-12.89-41.472-22.62-9.675-60.3 14.145-74.71 30.637-1.24 1.443-18.18 26.168-17.72 26.281h.5c-5.99 3.706-12.35 7.723-19.19 12.277-12.61 8.487-26.77 18.162-41.47 29.761-15.97 12.304-31.21 25.528-45.65 39.604a381.45 381.45 0 0 0-44.26 51.175l-.42.679c2.23-6.874 7.8-26.309 8.05-27.836 3.65-21.726-2.06-65.829-23.94-77.201-15.75-8.176-33.92.622-40.17 16.464-6.24 15.842.57 36.465 9.1 50.524 9.64 15.842 42.88 38.474 45.51 40.284-12.97 18.999-24.66 38.845-34.99 59.407-6.11 11.967-11.87 24.159-17.5 36.493l3.37-12.164c3.64-21.726-2.04-65.829-23.92-77.201-15.77-8.176-33.92.622-40.16 16.464-6.25 15.842.56 36.465 9.1 50.525 8.53 14.059 36.74 34.116 44.07 39.293l-6.36 14.145-30.36 67.724c-3.65 7.779-7.55 15.304-11.31 22.858 1.53-5.347 2.83-9.845 2.83-10.552 3.64-21.726-2.07-65.829-23.94-77.173-15.78-8.176-33.92.594-40.17 16.436s.56 36.465 9.1 50.524c8.25 13.607 33.92 32.193 42.74 38.36l-12.81 22.434c-3.1 4.837-5.79 9.703-9.18 14.399l-9.84 14.144-19.79 25.942-13.37 16.747c3.74-7.723 10.75-22.943 11.17-24.301a113.28 113.28 0 0 0 1.53-57.172 36.56 36.56 0 0 0 1.49-6.28c2.32-16.974-9.15-33.466-26.91-34.089-24.62-.877-51.24 34.768-58.73 55.475-.46 1.217-3.76 14.994-5.66 23.735l1.08-15.927c.68-10.806 1.02-21.613 1.47-33.24v-16.973c0-5.658-.45-11.712-.65-17.624-.77-13.692-2.21-27.554-3.96-41.472 9.47.594 43.11 2.122 58.57-3.678s33.55-17.511 38.5-34.201m-87.88 8.147c-.68 1.217-6.67 15.927-9.81 24.102l-3.59-25.149" class="H G"></path><path d="M1656.87 167.131c.31.339 15.91-25.234 16.71-26.96 9.24-19.972 15.4-64.046-2.83-80.765-13.03-12.051-32.85-8.487-43.08 5.262s-9.07 35.305-4.55 51.118c5.43 18.586 33.75 51.317 33.75 51.345z" class="H"></path></g><g class="B C E"><path d="M632.862 331.791H1532.7L1416.24 977.915H516.404L632.862 331.791Z" class="D"></path><path d="M1514.69 331.791l-56 310.728-51.7 286.88-8.76 48.544H498.424l86.948-482.414 29.51-163.738h899.808z" class="F"></path><path d="M639.443 352.047H1482.83L1373.67 957.661H530.277L639.443 352.047Z" class="I"></path><g fill="#bfbfbf"><path d="M538.814 910.303l-8.537 47.356h843.393l8.53-47.356H538.814z"></path><path d="M1457.85 352.047l-109.16 605.614h24.98l109.17-605.614h-24.99z"></path></g><path d="M1443.15 572.134l21.23-117.824h-24.96l-21.26 117.824h24.99z" fill="#a1a1a1"></path><path d="M1402.47 935.144H297.932v42.773H1402.47v-42.773z" class="D"></path><path d="M455.432 935.144H75.035v42.773h380.397v-42.773z" class="F"></path><path d="M631.732 394.82h843.388l7.72-42.773H639.449l-7.717 42.773z" fill="#bfbfbf"></path><path d="M684.816 381.496h401.724l3.67-20.396H688.491l-3.675 20.396z" class="D"></path></g><path d="M665.144 588.204h311.525l-40.308 223.711H624.836l40.308-223.711z" fill="#000" class="J"></path><g class="B C E"><path d="M645.919 567.523h311.554l-40.308 223.683H605.611l40.308-223.683z" class="D"></path><path d="M952.756 593.578l4.72-26.055H645.923l-4.693 26.055h311.526z" class="F"></path><path d="M940.207 581.131a7.72 7.72 0 0 1-1.289 4.301 7.71 7.71 0 0 1-7.926 3.303 7.71 7.71 0 0 1-3.958-2.115 7.72 7.72 0 0 1-2.114-3.961 7.73 7.73 0 0 1 .446-4.468c.588-1.412 1.581-2.618 2.855-3.465a7.71 7.71 0 0 1 4.297-1.289c2.04 0 3.995.81 5.437 2.253s2.252 3.4 2.252 5.441h0z" class="D"></path></g><path d="M766.733 618.416c15.151 2.207 19.928 14.343 16.508 31.599l-.678 3.48h-13.399l.877-4.413c2.233-11.316-.962-18.36-11.307-18.36s-16.056 6.988-18.289 18.36c-5.653 28.826 37.397 29.024 30.274 65.065-3.392 17.256-13.172 29.562-29.199 31.768l-1.923 9.732h-11.73l1.922-9.732c-15.518-2.206-20.295-14.342-16.96-31.768l1.555-7.893h13.398l-1.724 8.798c-2.29 11.57 1.187 18.19 11.476 18.19s16.338-6.62 18.599-18.19c5.654-28.629-37.198-28.996-30.075-65.065 3.448-17.624 12.889-29.194 28.775-31.599l2.035-10.269h11.731l-1.866 10.297zm29.11 110.188l-3.505 17.822h-13.766l3.505-17.822h13.766zm-4.042-50.27l11.9-60.397h14.303l-11.9 60.397-9.639 39.605H785.95l5.851-39.605zm33.023 50.27l-3.505 17.822h-13.766l3.505-17.822h13.766zm-4.014-50.27l11.872-60.397h14.331l-11.9 60.397-9.583 39.605h-10.656l5.936-39.605z" class="F"></path><path d="M1458.7 642.519l-51.7 286.88h-322.66l51.72-286.88h322.64z" fill="#000" class="J"></path><g class="B C E"><path d="M1112.4 623.283h399.52l-51.7 286.88h-399.51l51.69-286.88z" class="D"></path><path d="M1505.9 656.721l6.02-33.438H1112.4l-6.02 33.438h399.52z" class="F"></path><path d="M1489.79 640.766c0 1.96-.58 3.875-1.66 5.504a9.92 9.92 0 0 1-4.45 3.647c-1.81.748-3.8.943-5.72.558s-3.68-1.33-5.06-2.717c-1.39-1.388-2.33-3.155-2.71-5.077-.37-1.923-.17-3.915.58-5.723a9.83 9.83 0 0 1 3.66-4.438c1.63-1.084 3.54-1.66 5.5-1.655 1.3 0 2.58.257 3.78.754s2.29 1.228 3.21 2.148c.91.92 1.64 2.012 2.13 3.213.5 1.201.75 2.488.74 3.786z" class="D"></path></g><path d="M1153.56 764.474c3.14-4.327 7.27-7.839 12.04-10.24 4.78-2.402 10.06-3.624 15.4-3.565 21.4 0 27.82 15.7 23.12 39.605l-6.41 32.617c-5.01 25.46-20.41 42.094-45.85 42.094s-33.92-16.634-29.03-42.094l2.2-11.316h17.36l-2.43 12.391c-2.83 14.993 1.44 24.017 14.75 24.017 13.32 0 21.29-9.024 24.23-24.017l6.36-32.476c2.97-14.993-1.44-24.046-14.76-24.046-10.2 0-18.23 5.658-22.3 17.851l-.73 3.819h-17.36l22.76-92.562h65.52l-3.28 16.662h-48.9l-12.69 51.26zm77.48-27.612c5-25.46 20.86-41.868 46.27-41.868s35.05 16.436 30.05 41.868l-16.96 85.914c-5.01 25.46-20.89 42.094-46.56 42.094-25.66 0-34.77-16.634-29.73-42.094l16.93-85.914zm1.16 87.102c-2.83 14.993 1.69 24.018 15.01 24.018 13.31 0 21.51-9.025 24.45-24.018l17.44-88.036c2.99-15.247-1.42-24.272-14.98-24.272-13.57 0-21.52 9.025-24.51 24.272l-17.41 88.036zm112.02-112.899l-4.24 22.207c-1.33 6.846-5.46 11.315-12.27 11.315s-9.16-4.526-7.8-11.315l4.38-22.207c1.33-6.733 5.43-11.316 12.27-11.316s9.07 4.583 7.66 11.316zm25.44-10.948l-41.58 70.355h-4.72l41.49-70.355h4.81zm-40.37 10.636l-4.49 22.915c-.76 3.819 0 6.336 3.76 6.336s5.65-2.517 6.27-6.336l4.53-22.915c.73-3.819-.26-6.421-3.76-6.421-3.51 0-5.63 2.602-6.39 6.421h.08zm44.38 26.536l-4.35 22.122c-1.33 6.817-5.34 11.315-12.27 11.315-6.92 0-9.16-4.526-7.8-11.315l4.35-22.122c1.33-6.733 5.43-11.316 12.24-11.316s9.08 4.583 7.75 11.316h.08zm-15.01-.283l-4.55 22.801c-.76 3.819.23 6.421 3.73 6.421 3.51 0 5.66-2.602 6.31-6.421l4.49-22.801c.74-3.819-.25-6.337-3.79-6.337-3.53 0-5.51 2.518-6.27 6.337h.08zm-56.14 59.604c2.83-13.72 11.31-22.631 24.96-22.631s18.88 8.826 16.17 22.631l-9.13 46.422c-2.83 13.607-11.31 22.632-25.07 22.632-13.77 0-18.74-8.968-16.06-22.632l9.13-46.422zm.62 46.96c-1.61 8.204.91 12.928 8.09 12.928s11.56-4.724 13.2-12.928l9.33-47.469c1.61-8.063-.77-12.957-8.09-12.957s-11.59 4.894-13.17 12.957l-9.36 47.469zm76.66-26.816l-1.78 9.109h-20.63l-7.66 38.869h-10.01l17.7-89.79h35.61l-1.78 9.109h-25.64l-6.44 32.703h20.63zm43.56 0l-1.78 9.109h-20.64l-7.66 38.869h-9.97l17.66-89.79h35.62l-1.78 9.109h-25.64l-6.42 32.703h20.61z" class="F"></path><path d="M836.121 331.791l-29.51 163.738H585.369l29.51-163.738h221.242z" fill="#000" class="J"></path><g class="B C D E"><path d="M418.516 164.885h425.411l-55.035 305.494H363.453l55.063-305.494z"></path><path d="M662.342 164.885l-24.62 29.873-1.753-29.873h-8.791l-14.472 26.026-6.954-26.026h-9.667l-9.102 27.214-13.794-27.214h-7.151l-4.438 33.409-26.966-33.211 2.826 44.103-33.383-26.762 11.477 41.981-38.556-19.265 19.702 38.247-42.23-11.061 27.164 33.042-44.294-2.433 33.553 26.563-44.633 6.309 38.668 19.067-43.276 14.795 42.344 10.835-40.28 22.716 44.35 2.178-35.701 29.76 44.633-6.534-29.736 35.672 43.219-15.021-22.641 40.198 40.167-22.914-14.699 43.198 35.531-29.958-4.24 30.58h9.582l18.034-21.867 1.301 21.867h13.681l10.063-18.048 4.805 18.048h14.472l6.417-19.236 9.78 19.236h12.239l3.392-25.404L649 470.379h5.823l-2.346-36.323 33.411 26.761-11.505-41.981 38.584 19.294-19.73-38.276 42.258 11.09-27.164-33.042 44.294 2.433-33.581-26.592 44.661-6.28-38.696-19.067 43.276-14.795-42.315-10.835 40.251-22.716-44.322-2.207 35.673-29.76-44.633 6.535 29.736-35.673-43.219 15.05 22.641-40.227-40.138 22.942 14.698-43.225-35.531 29.958 5.343-38.558h-4.127z"></path></g><path d="M837.513 200.501l6.416-35.616H418.518l-6.416 35.616h425.411z" class="B C E F"></path><path d="M820.384 183.498c.005 2.09-.609 4.134-1.766 5.873a10.54 10.54 0 0 1-10.828 4.506 10.54 10.54 0 0 1-5.405-2.889 10.56 10.56 0 0 1-2.887-5.41c-.406-2.049-.195-4.173.607-6.103s2.157-3.577 3.895-4.734 3.781-1.772 5.868-1.766a10.51 10.51 0 0 1 7.436 3.082 10.53 10.53 0 0 1 3.08 7.441h0z" class="B C D E"></path><path d="M535.54 275.098c14.868 0 19.334 7.1 16.564 21.16l-.877 4.498c-2.006 10.099-6.105 16.379-14.924 18.982 8.762 2.603 10.854 9.958 8.791 20.481l-1.612 8.034c-2.826 14.343-11.306 22.405-26.202 22.405h-21.964l18.798-95.56h21.426zm-16.367 85.857c7.774 0 12.127-4.102 13.879-12.956l1.668-8.487c2.092-10.637-1.442-14.145-10.572-14.145h-9.271l-7.01 35.616 11.306-.028zm5.795-45.262c8.48 0 13.342-2.829 15.32-12.702l1.103-5.658c1.668-8.487-.396-12.56-8.028-12.56h-10.515l-6.077 30.835 8.197.085zm38.329 32.419c-1.696 8.487.707 13.805 8.48 13.805s12.07-5.205 13.766-13.805l14.359-73.014h9.978l-14.303 72.476c-2.826 14.484-11.306 24.159-26.146 24.159s-19.363-9.675-16.536-24.159l14.275-72.476h10.515l-14.388 73.014zm61.905-11.712l-8.112-61.302h11.052l5.653 46.96 24.253-46.96h10.091L635.746 336.4l-6.756 34.258h-10.487l6.699-34.258zm44.684 21.019l-2.601 13.239h-10.232l2.6-13.239h10.233zm-2.996-37.398l8.819-44.923h10.628l-8.848 44.923-7.151 29.477h-7.915l4.467-29.477z" class="F"></path><path d="M1369.55 331.791l-29.74 164.954h-311.55l29.73-164.954h311.56z" fill="#000" class="J"></path><g class="B C E"><path d="M1050.84 252.355h311.55l-40.34 223.683h-311.52l40.31-223.683z" class="D"></path><path d="M1357.67 278.41l4.72-26.055h-311.55l-4.69 26.055h311.52z" class="F"></path><path d="M1337.43 273.687a7.72 7.72 0 0 0 0-15.446c-4.26 0-7.71 3.458-7.71 7.723s3.45 7.723 7.71 7.723z" class="D"></path></g><path d="M1123.26 355.837l-.34 1.839h-7.13l.43-2.235c1.19-6.054-.43-9.619-5.8-9.619s-8.48 3.565-9.61 9.534c-2.96 15.135 19.39 16.577 15.63 35.559-2 10.213-8.22 16.974-18.51 16.974s-13.82-6.676-11.82-16.974l.77-3.847h7.04l-.85 4.243c-1.19 6.082.62 9.647 5.99 9.647s8.62-3.565 9.81-9.647c2.97-15.05-19.31-16.492-15.55-35.474 2.04-10.411 8.14-16.974 18.23-16.974 10.1 0 13.86 6.761 11.71 16.974zm146.98 0l-.34 1.839h-7.12l.42-2.235c1.19-6.054-.42-9.619-5.79-9.619s-8.48 3.565-9.61 9.534c-2.97 15.135 19.39 16.577 15.63 35.559-2.01 10.213-8.22 16.974-18.51 16.974s-13.83-6.676-11.82-16.974l.76-3.847h7.04l-.85 4.243c-1.18 6.082.63 9.647 6 9.647s8.62-3.565 9.81-9.647c2.96-15.05-19.31-16.492-15.55-35.474 2.03-10.411 8.14-16.974 18.23-16.974s13.85 6.761 11.7 16.974zm-140.14 37.682l-5.29 13.494h-6.93l26.21-67.47h10.88l-.4 67.47h-7.49v-13.607l-16.98.113zm2.23-6.45h15.04v-38.954l-15.04 38.954zm28.13 19.944l13.28-67.47h7.52l-11.93 60.624h19.25l-1.35 6.846h-26.77zm63.88-37.483l-1.32 6.732h-16.48l-4.81 24.018h20.21l-1.27 6.733h-27.76l13.29-67.47h27.76l-1.36 6.818h-20.21l-4.55 23.055 16.5.114z" class="F"></path><g class="B C D E"><path d="M588.844 1087.17s4.183 25.12 8.819 34.91 13.031 21.84 7.434 23.25c-5.597 1.42-13.455-1.41-19.051-7.44-6.364-7.56-13.362-14.56-20.918-20.93-10.204-8.49-11.617-10.72-8.819-16.75a148.05 148.05 0 0 1 12.07-18.16l20.465 5.12z"></path><path d="M604.818 1145.36c-13.172-5.52-22.614-19.41-30.839-27.95a110.36 110.36 0 0 0-18.458-15.28c-1.555 4.73.565 7.39 9.61 14.83 7.556 6.37 14.554 13.37 20.918 20.93 5.483 5.94 13.342 8.72 18.769 7.47z"></path></g><path d="M477.847 869.482s-15.801 20.453-20.917 34.881-2.827 29.76 6.501 34.428 136.188 0 136.188 0l-31.093 143.259 20.465 5.12 66.002-151.18c4.184-10.241 10.685-31.627 7.434-37.2s-56.702-11.627-56.702-11.627l.226-14.71-123.864.283-4.24-3.254z" class="B C E F"></path><path d="M601.061 933.246l7.236-33.381" stroke="#7a7a7a" class="B C G"></path><g class="E B C"><path d="M566.66 603.142s-4.466-15.672-15.094-17.341-20.663 0-19.532 4.469 1.667 6.139 1.667 6.139-23.461 1.132-35.757 12.872.565 36.775 7.265 46.394 14.528 18.473 15.094 21.245 3.901 12.306-2.827 17.341-64.815 32.419-63.684 38.586 21.341 139.607 21.341 139.607h130.648s21.878-146.311 19.051-149.112-59.755-29.081-59.755-29.081l2.827-15.644s18.458-2.235 17.892-6.704-5.031-25.178-5.031-25.178l4.466-6.138-11.278-13.975v-8.968l-7.293-14.512z" class="I"></path><path d="M564.993 694.261l2.827-15.644s18.458-2.235 17.892-6.704-5.031-25.178-5.031-25.178l4.466-6.138-11.193-13.975v-8.968l-7.265-14.512s-4.466-15.672-15.094-17.341-20.663 0-19.532 4.469 1.667 6.139 1.667 6.139-23.461 1.132-35.757 12.872.565 36.775 7.265 46.394 14.529 18.472 15.094 21.245 3.901 12.306-2.827 17.341c-2.278 1.514-4.637 2.902-7.066 4.159 6.36 6.619 19.051 17.991 32.874 19.972 12.55 1.81 24.648-10.382 31.799-19.435l-10.119-4.696z" class="D"></path><path d="M516.943 671.373c.442-.004.866-.176 1.187-.481 4.72-4.724 11.024-7.553 7.547-10.41s0-11.316 1.583-11.316 6.614-1.273 6.614-2.517a43.97 43.97 0 0 0-6.614-10.411c-2.516-3.168 11.674-16.096 15.434-18.303s-9.752.34-10.402-5.035 30.81-10.156 34.061-10.665c-1.131-3.367-5.654-14.965-14.784-16.408-10.6-1.669-20.663 0-19.532 4.47s1.668 6.138 1.668 6.138-23.461 1.132-35.757 12.872.565 36.776 7.264 46.394c4.155 5.856 8.735 11.542 11.731 15.672z" class="F"></path></g><use xlink:href="#B" class="D"></use><use xlink:href="#B" class="B C E G"></use><path d="M567.594 628.884c.198 2.009-.509 3.706-1.64 3.847s-2.233-1.386-2.431-3.394.509-3.706 1.612-3.819 2.233 1.386 2.459 3.366z" class="F"></path><path d="M565.695 652.873c3.971 1.263 8.181 1.582 12.296.933m-19.522-32.417a10.65 10.65 0 0 1 5.388-3.208 10.64 10.64 0 0 1 6.258.379" class="B C E G"></path><use xlink:href="#C" class="I"></use><g class="C E B"><g class="G"><use xlink:href="#C"></use><path d="M620.709 816.527c4.015-1.613 8.369-2.2 12.668-1.706s8.406 2.053 11.952 4.535"></path></g><g class="D"><path d="M598.203 832.622l-11.307 2.829c-1.47.283-4.777 5.912-6.473 8.487s-9.865 3.366-5.908 7.327 8.706-.566 10.968-2.546l5.059-4.498 5.088.848c1.499 3.455 3.489 6.676 5.908 9.562 3.364 3.678 5.455 6.478 12.777 5.658s10.034-8.713 4.692-16.323-20.804-11.344-20.804-11.344z"></path><path d="M606.375 831.097s-3.081-5.658-6.473-4.215-8.169 20.849-5.908 23.395 4.212-6.195 7.887-11.316c1.877-2.385 3.391-5.035 4.494-7.864h0z"></path><path d="M606.374 831.095s-9.554 16.068-7.321 20.595 4.805.282 7.886-4.81 6.191-9.561 5.654-12.956-3.392-3.819-6.219-2.829zm6.472 6.337s5.371.537 5.371 5.063-9.3 12.391-12.409 12.391-.848-3.366-.848-3.366l7.886-14.088z"></path><path d="M617.934 845.861s2.516-.821 2.827 2.263-6.756 8.487-10.402 9.307 0-4.781 0-4.781l7.575-6.789z"></path></g></g><use xlink:href="#D" class="I"></use><g class="C E B"><g class="G"><use xlink:href="#D"></use><path d="M441.379 816.158a26.55 26.55 0 0 0-6.389 3.31m24.627-2.941c-3.585-1.445-7.451-2.055-11.306-1.782"></path></g><g class="D"><path d="M471.773 839.016s-7.887 12.956-3.93 18.331 16.96-1.697 16.96-1.697 1.385.566 6.191-1.697 8.48-9.307 6.473-14.145-25.694-.792-25.694-.792zm26.655-7.921a12.83 12.83 0 0 0 6.303 3.253c3.223.311 11.844-1.556 13.54 0s.452 6.309-3.081 7.384-6.162-.17-10.148-.453l-5.229-.311-1.385-9.873z"></path><path d="M490.795 831.943s4.127-2.631 7.151-1.132 4.891 11.316 4.891 15.05-1.527 7.129-2.629 7.129a4.78 4.78 0 0 1-3.76-2.999c-.763-1.867-4.155-12.418-4.522-14.286a23.07 23.07 0 0 0-1.131-3.762h0z"></path><path d="M484.404 833.923a16.3 16.3 0 0 1 8.282-1.867c2.996.736 4.494 16.549 4.861 19.548s-.735 4.894-3.731 3.027-4.89-10.552-6.388-12.787-4.89-5.403-3.024-7.921z"></path><path d="M477.65 837.209a7.32 7.32 0 0 1 2.907-2.638c1.19-.598 2.521-.86 3.849-.757 4.127.764 7.887 16.181 8.65 18.444s-2.997 4.131-4.523 2.999a106.9 106.9 0 0 1-9.752-14.286c-.396-1.132-1.131-3.762-1.131-3.762z"></path><path d="M479.455 837.915a2.83 2.83 0 0 0-1.507-1.181 2.82 2.82 0 0 0-1.913.05 6.02 6.02 0 0 0-2.218 1.183c-.648.546-1.173 1.222-1.542 1.985-1.244 3.056 2.827 8.487 5.653 11.995s6.445 3.225 6.756 1.075c-.674-5.345-2.455-10.49-5.229-15.107h0z"></path><path d="M615.932 807.504H484.408v83.255h131.524v-83.255z"></path><path d="M549.332 846.26c5.261 0 9.526-4.268 9.526-9.533s-4.265-9.534-9.526-9.534-9.525 4.269-9.525 9.534a9.53 9.53 0 0 0 9.525 9.533zm-59.023 239.44s-1.385 34.42 4.636 46.5 15.349 20 21.398 7.93c6.049-12.08-3.251-43.26-3.251-48.38a75.42 75.42 0 0 0-.933-10.69l-21.85 2.32v2.32z"></path></g></g><use xlink:href="#E" class="F"></use><use xlink:href="#E" class="B C E G"></use><defs><path id="B" d="M532.576 653.44s-9.498-15.643-15.066-8.486 1.667 20.113 8.479 21.245c1.83.377 3.718.373 5.547-.012s3.558-1.141 5.082-2.223l6.699 5.036"></path><path id="C" d="M612.566 793.922l8.14 22.632-17.327 30.976 12.268 11.457 45.933-27.61a5.65 5.65 0 0 0 2.388-3.022c.419-1.256.384-2.619-.099-3.852l-39.403-102.35-4.41-1.301"></path><path id="D" d="M474.258 779.666l-14.643 36.776 17.271 27.072-7.349 13.664-50.88-25.884a5.66 5.66 0 0 1-2.388-3.023c-.419-1.256-.384-2.619.099-3.852l36.916-92.958 3.448-2.404"></path><path id="E" d="M468.012 906.686s1.837 74.429 8.819 116.774 13.483 62.24 13.483 62.24c4.928.74 9.94.74 14.868 0 3.236-.91 6.166-2.68 8.48-5.12l8.819-158.165c.34-12.561-.452-24.64-3.702-28.289s-31.094-6.026-40.902-.453"></path></defs></svg>